<?xml version="1.0" encoding="UTF-8" standalone="no"?>
<svg
   id="Capa_2"
   viewBox="0 0 56.699342 45.490058"
   version="1.1"
   sodipodi:docname="logo (1).svg"
   width="566.99341"
   height="454.90059"
   inkscape:version="1.2 (dc2aeda, 2022-05-15)"
   xmlns:inkscape="http://www.inkscape.org/namespaces/inkscape"
   xmlns:sodipodi="http://sodipodi.sourceforge.net/DTD/sodipodi-0.dtd"
   xmlns="http://www.w3.org/2000/svg"
   xmlns:svg="http://www.w3.org/2000/svg">
  <defs
     id="defs148" />
  <sodipodi:namedview
     id="namedview146"
     pagecolor="#000000"
     bordercolor="#000000"
     borderopacity="0.25"
     inkscape:showpageshadow="2"
     inkscape:pageopacity="0"
     inkscape:pagecheckerboard="0"
     inkscape:deskcolor="#d1d1d1"
     showgrid="false"
     inkscape:zoom="5.6986052"
     inkscape:cx="62.032723"
     inkscape:cy="20.794562"
     inkscape:window-width="1390"
     inkscape:window-height="1205"
     inkscape:window-x="0"
     inkscape:window-y="25"
     inkscape:window-maximized="0"
     inkscape:current-layer="Capa_1-2" />
  <g
     id="Capa_1-2"
     transform="translate(0.00845627,0.01101769)">
    <path
       d="m 27.68,20.66 c -0.55,0.72 -1.62,0.75 -2.21,0.06 L 21.01,15.47 C 18.55,12.57 15.53,8.86 13.25,9.05 11.68,9.18 10.46,11.17 9.81,13.54 8.6,18 9.44,23.83 11.4,28.97 c 1.5,3.93 3.66,7.46 6.28,7.41 2.06,-0.04 4.42,-2.29 6.42,-4.6 5.38,-6.2 8.27,-12.8 13.63,-17.05 2.61,-2.07 5.8,-3.58 8.98,-3.05 4.56,0.77 9.09,5.76 9.86,11.98 0.67,5.42 -1.51,11.77 -4.93,14.52 -3.88,3.11 -9.34,1.58 -13.55,-1.34 -0.67,-0.47 -0.8,-1.41 -0.29,-2.05 l 3.98,-4.98 c 0.43,-0.54 1.18,-0.69 1.78,-0.36 l 0.7,0.38 c 0.4,0.21 0.83,0.4 1.28,0.47 0.67,0.1 1.26,-0.07 1.7,-0.62 0.21,-0.26 0.36,-0.57 0.46,-0.88 0.13,-0.37 0.2,-0.75 0.24,-1.14 0.1,-0.85 0.05,-1.78 -0.08,-2.63 -0.13,-0.81 -0.35,-1.68 -0.67,-2.43 -0.13,-0.31 -0.3,-0.62 -0.5,-0.9 -0.16,-0.22 -0.35,-0.42 -0.57,-0.57 -0.4,-0.27 -0.85,-0.34 -1.32,-0.24 -0.26,0.05 -0.49,0.14 -0.73,0.26 -0.27,0.13 -0.52,0.29 -0.76,0.47 -0.54,0.4 -1.06,0.89 -1.52,1.38 -0.54,0.57 -1.04,1.17 -1.52,1.79 -0.5,0.64 -0.98,1.29 -1.45,1.96 -0.45,0.63 -0.89,1.27 -1.32,1.91 -0.8,1.18 -1.57,2.37 -2.35,3.56 -0.74,1.13 -1.49,2.25 -2.27,3.34 -0.84,1.17 -1.72,2.31 -2.68,3.39 -0.97,1.1 -2.02,2.14 -3.16,3.06 -1.13,0.91 -2.36,1.7 -3.7,2.28 -1.33,0.58 -2.76,0.95 -4.21,1.11 -1.45,0.15 -2.93,0.09 -4.36,-0.21 C 13.36,44.9 12.03,44.38 10.81,43.61 8.32,42.05 6.44,39.59 5.02,37.12 4.65,36.48 4.3,35.82 3.98,35.15 3.66,34.49 3.35,33.82 3.07,33.14 2.51,31.8 2.03,30.43 1.62,29.03 1.22,27.64 0.89,26.24 0.63,24.82 0.37,23.4 0.18,21.97 0.08,20.52 -0.13,17.62 0.02,14.72 0.68,11.87 1.32,9.1 2.49,6.24 4.41,4.05 5.38,2.94 6.48,2.07 7.79,1.39 9.1,0.72 10.53,0.29 11.99,0.1 c 1.45,-0.19 2.94,-0.14 4.37,0.18 0.71,0.16 1.38,0.37 2.05,0.66 0.66,0.29 1.29,0.63 1.9,1.01 1.22,0.78 2.33,1.73 3.36,2.73 1.06,1.03 2.06,2.13 3.04,3.23 1.68,1.88 3.34,3.79 4.91,5.77 0.4,0.51 0.4,1.23 0.01,1.74 l -3.97,5.22 z"
       style="fill:#ffffff;stroke-width:0px"
       id="path142" />
  </g>
</svg>
